# xmcd
#
# Track frame offsets: 
#        150
#        45432
#        139775
#        175450
#        222232
#        239827
#        258077
#        273525
#        300337
#
# Disc length: 4439 seconds
#
# Revision: 2
# Processed by: cddbd v1.5.2PL0 Copyright (c) Steve Scherf et al.
# Submitted via: ExactAudioCopy v1.3
#
DISCID=80115509
DTITLE=Royal Concertgebouw Orchestra - RCO 125 anniversary edition - Th
DTITLE=e Radio Legacy, CD 014 [Willem Mengelberg, chief conductor 1895
DTITLE=1945]
DYEAR=2013
DGENRE=Classical
TTITLE0=Carl Maria von Weber: Oberon, or the Elf King's Oath (1826), J
TTITLE0=306 - Obertura
TTITLE1=Ludwig van Beethoven: Concierto para piano No. 5 en Mi bemol M
TTITLE1=ayor 'Emperador' (1809-1811), op. 73 - I. Allegro
TTITLE2=Ludwig van Beethoven: Concierto para piano No. 5 en Mi bemol M
TTITLE2=ayor 'Emperador' (1809-1811), op. 73 - II. Adagio un poco moss
TTITLE2=o
TTITLE3=Ludwig van Beethoven: Concierto para piano No. 5 en Mi bemol M
TTITLE3=ayor 'Emperador' (1809-1811), op. 73 - III. Rondó. Allegro
TTITLE4=Gustav Mahler: Lieder eines fahrenden Gesellen (1884-1885 - ver
TTITLE4=sión orquestal de 1896) - I. Wenn mein Schatz Hochzeit macht
TTITLE5=Gustav Mahler: Lieder eines fahrenden Gesellen (1884-1885 - ver
TTITLE5=sión orquestal de 1896) - II. Ging heut Morgen übers Feld
TTITLE6=Gustav Mahler: Lieder eines fahrenden Gesellen (1884-1885 - ver
TTITLE6=sión orquestal de 1896) - III. Ich hab'ein glühend Messer
TTITLE7=Gustav Mahler: Lieder eines fahrenden Gesellen (1884-1885 - ver
TTITLE7=sión orquestal de 1896) - IV. Die zwei blauen Augen von meinem
TTITLE7=Schatz
TTITLE8=Gustav Mahler: Sinfonía No. 5 en Do sostenido menor (1901-1902
TTITLE8=) - IV. Adagietto. Sehr langsam
EXTD=
EXTT0=
EXTT1=
EXTT2=
EXTT3=
EXTT4=
EXTT5=
EXTT6=
EXTT7=
EXTT8=
PLAYORDER=
